#!OML:ASF H:\Male1\Project 1\Capture day 1\Session 1\Male1.ASF
:FULLY-SPECIFIED
:DEGREES
340
root 26.2034 14.393 -12.308 -201.07 62.8983 -198.581
lowerback 12.01 -1.38573 -8.39766
upperback 4.58755 -2.51713 -2.04675
thorax -1.60575 -1.17517 2.89856
lowerneck -2.80542 -9.37403 -10.1718
upperneck 6.19134 -13.1653 16.672
head 4.11272 -6.15227 6.04696
rclavicle -3.13645e-014 1.99282e-014
rhumerus -73.3187 30.7177 -98.5149
rradius 99.8324
rwrist -49.1559
rhand -44.6638 1.12769
rfingers 7.12502
rthumb -17.4601 -28.1082
lclavicle -3.13645e-014 1.99282e-014
lhumerus -54.3002 -6.3589 82.9099
lradius 120.098
lwrist 11.3664
lhand -27.813 8.62834
lfingers 7.12502
lthumb -1.20535 38.6047
rfemur -19.6947 2.36327 35.6808
rtibia 36.906
rfoot -24.3431 -16.3262
rtoes 38.2997
lfemur -8.6839 -10.7897 -13.6437
ltibia 71.2289
lfoot -14.7971 11.7238
ltoes -18.6031
341
root 26.6068 14.3249 -12.477 -200.09 65.213 -197.705
lowerback 11.8872 -1.12489 -7.44034
upperback 4.48306 -2.08305 -1.51442
thorax -1.72231 -0.965915 2.86842
lowerneck -2.71118 -9.49428 -10.1817
upperneck 6.19979 -13.3265 16.5143
head 4.11065 -6.24412 5.98803
rclavicle 2.76311e-014 1.17283e-014
rhumerus -68.8337 31.432 -96.6278
rradius 99.1607
rwrist -49.6758
rhand -44.7303 0.20439
rfingers 7.12502
rthumb -17.5242 -29.0258
lclavicle 2.76311e-014 1.17283e-014
lhumerus -55.418 -5.14028 82.8975
lradius 116.161
lwrist 12.4559
lhand -27.5178 11.1576
lfingers 7.12502
lthumb -0.920209 41.1354
rfemur -18.4377 3.0266 37.4197
rtibia 38.1321
rfoot -29.6287 -6.38464
rtoes 55.5613
lfemur -12.8892 -11.634 -12.3168
ltibia 73.3352
lfoot -15.4553 11.7801
ltoes -20.157
342
root 27.0035 14.2948 -12.6253 -200.252 67.4903 -198.268
lowerback 11.6988 -0.810963 -7.09836
upperback 4.41648 -1.63083 -1.20271
thorax -1.74029 -0.748632 2.94404
lowerneck -2.77365 -9.59437 -10.0775
upperneck 6.1982 -13.4563 16.3789
head 4.12169 -6.30959 5.91362
rclavicle -4.67641e-014 -3.51849e-014
rhumerus -64.447 31.88 -94.6813
rradius 98.7828
rwrist -49.8505
rhand -44.7317 -0.431856
rfingers 7.12502
rthumb -17.5254 -29.6619
lclavicle -4.67641e-014 -3.51849e-014
lhumerus -56.7673 -4.02152 82.7166
lradius 112.202
lwrist 13.2711
lhand -27.5515 13.0602
lfingers 7.12502
lthumb -0.952696 43.0378
rfemur -17.2321 3.63718 38.3792
rtibia 39.2293
rfoot -30.9416 5.14629
rtoes 61.902
lfemur -17.2724 -12.3568 -11.7071
ltibia 74.3472
lfoot -16.0168 11.9595
ltoes -21.6571
343
root 27.4008 14.3044 -12.7526 -202.177 69.6951 -200.837
lowerback 11.4505 -0.454448 -7.37614
upperback 4.36615 -1.18075 -1.17404
thorax -1.69485 -0.532472 3.07019
lowerneck -2.87393 -9.66911 -9.92096
upperneck 6.12118 -13.5546 16.3995
head 4.12026 -6.35229 5.88177
rclavicle -2.53947e-014 1.88845e-014
rhumerus -60.478 32.0145 -92.8602
rradius 98.8171
rwrist -49.3451
rhand -44.3473 -0.907077
rfingers 7.12502
rthumb -17.1555 -30.1697
lclavicle -2.53947e-014 1.88845e-014
lhumerus -58.4444 -3.10703 82.3805
lradius 108.699
lwrist 13.9399
lhand -27.9393 13.8647
lfingers 7.12502
lthumb -1.32732 43.8403
rfemur -16.0447 4.27738 38.5223
rtibia 40.1948
rfoot -29.916 10.7097
rtoes 62.7188
lfemur -21.5022 -12.8399 -11.8036
ltibia 74.0301
lfoot -16.3988 12.4324
ltoes -23.0833
344
root 27.8035 14.347 -12.8608 -206.418 71.7199 -205.881
lowerback 11.1557 -0.0853441 -8.18552
upperback 4.30382 -0.762434 -1.45746
thorax -1.62896 -0.329979 3.17231
lowerneck -2.94587 -9.72536 -9.69593
upperneck 5.97691 -13.6372 16.5977
head 4.10048 -6.38114 5.89843
rclavicle -5.70015e-014 -1.5704e-014
rhumerus -57.2013 31.8553 -91.4166
rradius 99.2545
rwrist -48.1321
rhand -43.4728 -0.645654
rfingers 7.12502
rthumb -16.3137 -29.9795
lclavicle -5.70015e-014 -1.5704e-014
lhumerus -60.5201 -2.41792 81.8748
lradius 106.028
lwrist 14.6217
lhand -28.4856 13.725
lfingers 7.12502
lthumb -1.85487 43.6967
rfemur -14.8636 5.05196 37.9488
rtibia 41.0317
rfoot -28.256 11.5199
rtoes 62.6275
lfemur -25.2479 -13.0363 -12.5086
ltibia 72.2502
lfoot -16.6306 13.0566
ltoes -24.3185
345
root 28.2175 14.4197 -12.9509 -212.576 73.5481 -212.786
lowerback 10.892 0.26686 -9.06706
upperback 4.24633 -0.367122 -1.9729
thorax -1.57834 -0.133093 3.07531
lowerneck -2.93947 -9.77981 -9.42057
upperneck 5.76916 -13.7307 17.0212
head 4.06388 -6.41015 5.9813
rclavicle -3.26255e-014 -8.44835e-015
rhumerus -54.7085 31.35 -90.445
rradius 100.055
rwrist -46.1973
rhand -42.1281 0.225284
rfingers 7.12502
rthumb -15.0185 -29.21
lclavicle -3.26255e-014 -8.44835e-015
lhumerus -62.9117 -1.95476 81.1836
lradius 104.303
lwrist 15.455
lhand -28.8605 12.9375
lfingers 7.12502
lthumb -2.21701 42.9057
rfemur -13.5969 5.81145 37.101
rtibia 41.7783
rfoot -26.1108 8.87442
rtoes 62.2831
lfemur -28.1344 -13.0469 -13.3545
ltibia 68.9903
lfoot -16.7965 13.4366
ltoes -25.2216
346
root 28.6461 14.5228 -13.0242 -220.172 75.1549 -220.97
lowerback 10.6816 0.579019 -9.71125
upperback 4.21045 0.00462848 -2.62586
thorax -1.53714 0.058166 2.70471
lowerneck -2.85013 -9.83402 -9.14717
upperneck 5.49792 -13.8325 17.6698
head 4.01354 -6.44075 6.13918
rclavicle 2.27111e-014 8.46388e-015
rhumerus -52.9802 30.544 -89.9643
rradius 101.108
rwrist -43.8591
rhand -40.6779 1.98508
rfingers 7.12502
rthumb -13.6212 -27.5493
lclavicle 2.27111e-014 8.46388e-015
lhumerus -65.4699 -1.65974 80.3248
lradius 103.441
lwrist 16.5303
lhand -28.8022 11.8199
lfingers 7.12502
lthumb -2.16071 41.7887
rfemur -12.283 6.35011 36.2445
rtibia 42.5958
rfoot -23.9257 1.71702
rtoes 59.1418
lfemur -29.9435 -13.0718 -14.0096
ltibia 64.4057
lfoot -16.98 13.2364
ltoes -25.637
347
root 29.0856 14.6396 -13.0859 -228.997 76.5783 -230.1
lowerback 10.6203 0.856749 -9.9984
upperback 4.23385 0.360653 -3.31358
thorax -1.51341 0.246437 2.10111
lowerneck -2.7239 -9.87963 -8.8855
upperneck 5.17801 -13.9197 18.4208
head 3.95029 -6.46588 6.33522
rclavicle 1.0635e-014 3.598e-014
rhumerus -51.9161 29.5426 -89.8904
rradius 102.362
rwrist -41.5138
rhand -39.4323 4.15526
rfingers 7.12502
rthumb -12.4205 -25.4557
lclavicle 1.0635e-014 3.598e-014
lhumerus -67.9878 -1.38048 79.3015
lradius 103.226
lwrist 17.7262
lhand -28.2891 10.7445
lfingers 7.12502
lthumb -1.6651 40.7177
rfemur -11.0259 6.47566 35.5048
rtibia 43.7292
rfoot -19.0228 -7.90602
rtoes 39.1922
lfemur -30.6932 -13.3686 -14.2732
ltibia 58.9359
lfoot -17.2423 12.4627
ltoes -25.7495
348
root 29.5259 14.7403 -13.1447 -238.9 77.9775 -240.012
lowerback 10.7569 1.10611 -9.80971
upperback 4.32463 0.707286 -3.90492
thorax -1.52166 0.432209 1.33495
lowerneck -2.59884 -9.89564 -8.69189
upperneck 4.79302 -13.9523 19.2021
head 3.86858 -6.47058 6.55792
rclavicle -3.52843e-015 -3.53837e-014
rhumerus -51.356 28.5014 -90.0852
rradius 103.736
rwrist -39.5825
rhand -38.6332 6.62986
rfingers 7.12502
rthumb -11.6499 -23.0263
lclavicle -3.52843e-015 -3.53837e-014
lhumerus -70.2649 -0.993416 78.1489
lradius 103.37
lwrist 18.8376
lhand -27.2666 10.065
lfingers 7.12502
lthumb -0.677586 40.0436
rfemur -10.0765 6.15576 35.0643
rtibia 45.5033
rfoot -14.1158 -10.3192
rtoes 9.42122
lfemur -30.5549 -14.0848 -13.8861
ltibia 53.1371
lfoot -17.6671 11.4613
ltoes -25.2208
349
root 29.9605 14.8155 -13.2039 -250.601 79.4781 -251.557
lowerback 11.0334 1.31881 -9.10983
upperback 4.43539 1.03392 -4.30959
thorax -1.57533 0.607565 0.481433
lowerneck -2.57618 -9.86359 -8.55383
upperneck 4.48383 -13.9129 19.8499
head 3.81034 -6.4404 6.74882
rclavicle -1.59028e-015 5.36719e-014
rhumerus -51.1869 27.5942 -90.4503
rradius 105.132
rwrist -38.3122
rhand -38.2269 9.25668
rfingers 7.12502
rthumb -11.2581 -20.4212
lclavicle -1.59028e-015 5.36719e-014
lhumerus -72.1547 -0.365298 76.8893
lradius 103.614
lwrist 19.7767
lhand -26.1177 9.67822
lfingers 7.12502
lthumb 0.432062 39.6575
rfemur -9.70023 5.60058 35.0538
rtibia 48.1438
rfoot -10.832 -9.65482
rtoes -7.64246
lfemur -29.8565 -15.2562 -12.6812
ltibia 47.5312
lfoot -17.7907 10.9991
ltoes -25.648
350
root 30.3926 14.8624 -13.2643 -265.565 80.5656 -266.189
lowerback 11.427 1.47534 -8.3279
upperback 4.59132 1.28688 -4.58674
thorax -1.62992 0.74406 -0.279776
lowerneck -2.67659 -9.76862 -8.43009
upperneck 4.27927 -13.7826 20.25
head 3.77186 -6.3657 6.86528
rclavicle -7.55382e-015 1.59028e-014
rhumerus -51.3012 26.8988 -90.8864
rradius 106.444
rwrist -37.7619
rhand -37.9761 11.6142
rfingers 7.12502
rthumb -11.0162 -18.0767
lclavicle -7.55382e-015 1.59028e-014
lhumerus -73.5887 0.530741 75.5872
lradius 103.924
lwrist 20.5458
lhand -24.8996 9.73099
lfingers 7.12502
lthumb 1.60858 39.7047
rfemur -9.89472 4.78718 35.0657
rtibia 51.7258
rfoot -8.37685 -8.92307
rtoes -14.9436
lfemur -28.5687 -16.8809 -11.2472
ltibia 42.5002
lfoot -17.5338 11.5205
ltoes -27.1129
351
root 30.8195 14.8799 -13.3255 -283.531 80.8892 -283.748
lowerback 11.8998 1.60255 -7.60481
upperback 4.74293 1.48843 -4.76263
thorax -1.72356 0.853524 -0.9019
lowerneck -2.89852 -9.64271 -8.35961
upperneck 4.19629 -13.6134 20.4663
head 3.77316 -6.26826 6.92849
rclavicle 5.76476e-015 2.46493e-014
rhumerus -51.6571 26.3708 -91.3042
rradius 107.597
rwrist -37.6975
rhand -37.6612 13.4333
rfingers 7.12502
rthumb -10.7125 -16.2736
lclavicle 5.76476e-015 2.46493e-014
lhumerus -74.5169 1.54104 74.367
lradius 104.216
lwrist 21.2931
lhand -23.8733 9.96462
lfingers 7.12502
lthumb 2.59977 39.9285
rfemur -10.7207 3.90215 34.9999
rtibia 56.1092
rfoot -6.67496 -9.4525
rtoes -17.2919
lfemur -26.8493 -18.5379 -9.91507
ltibia 38.3216
lfoot -16.8133 12.7692
ltoes -29.0157
